<!-- Generator: Adobe Illustrator 22.0.1, SVG Export Plug-In  -->
<svg version="1.1"
	 xmlns="http://www.w3.org/2000/svg" xmlns:xlink="http://www.w3.org/1999/xlink" xmlns:a="http://ns.adobe.com/AdobeSVGViewerExtensions/3.0/"
	 x="0px" y="0px" width="731.691px" height="258.676px" viewBox="0 0 731.691 258.676"
	 style="enable-background:new 0 0 731.691 258.676;" xml:space="preserve">
<style type="text/css">
	.st0{fill:#818181;stroke:#FFFFFF;stroke-miterlimit:10;}
	.st1{fill:#0657A3;stroke:#FFFFFF;stroke-miterlimit:10;}
</style>
<defs>
</defs>
<g>
	<g>
		<polygon class="st0" points="434.003,42.175 432.848,119.528 365.886,157.626 298.346,117.508 365.02,78.543 365.02,0.9 
			380.318,10.425 380.029,87.491 327.786,117.796 337.889,124.724 390.707,94.417 391.285,16.775 406.295,26.3 406.006,102.21 
			353.475,132.516 364.731,140.598 416.973,110.292 417.263,32.65 		"/>
		<path class="st1" d="M310.757,29.764l-16.163,9.358v74.923l61.493-36.349c2.141-1.265,3.462-3.56,3.481-6.047l0.449-58.056
			c0.042-5.484-5.892-8.937-10.639-6.189L310.757,29.764z M340.841,69.592l-30.084,16.456l0.289-38.388l22.77-13.545
			c4.725-2.81,10.711,0.594,10.711,6.092v23.167C344.527,65.964,343.114,68.348,340.841,69.592z"/>
	</g>
</g>
<path class="st1" d="M62.943,218.216c-1.45-4.496-4.642-7.252-9.428-8.195c-4.134-0.87-5.802-0.942-18.131-0.942H0.5v12.11h34.884
	c8.993,0,10.952,0.29,12.474,2.031c1.45,1.596,1.958,4.279,1.958,10.226c0,10.95-0.943,11.675-14.287,11.675H0.5v12.33h34.884
	c16.318,0,20.597-0.725,24.296-4.061c3.553-3.265,4.642-8.195,4.642-20.815C64.321,224.67,64.031,221.625,62.943,218.216z"/>
<g>
	<polygon class="st1" points="123.64,209.079 70.118,209.079 70.107,220.464 123.64,220.464 	"/>
	<polygon class="st1" points="70.107,245.848 70.118,257.451 123.93,257.451 123.93,245.848 	"/>
	<rect x="70.107" y="227.499" class="st1" width="51.575" height="10.661"/>
</g>
<path class="st1" d="M141.115,241.423c0,2.901,0.29,3.844,1.451,4.569c1.377,0.87,2.973,1.016,13.344,1.016
	c15.81,0,15.81,0,15.81-4.279c0-2.901-1.088-3.626-5.802-3.7l-11.604-0.435l-7.833-0.363l-3.916-0.144
	c-11.967-0.363-15.303-3.409-15.303-14.07c0-9.209,2.61-13.344,9.283-14.794c2.829-0.581,9.5-0.871,21.104-0.871
	c14.07,0,19.146,0.653,22.555,2.974c2.901,1.957,4.061,5.004,4.061,10.733c0,0.29,0,1.306-0.072,2.248h-14.215
	c-0.145-2.683-0.363-3.336-1.45-3.989c-1.233-0.725-3.046-0.87-13.49-0.87c-12.473,0-13.489,0.289-13.489,3.843
	c0,1.813,0.652,2.756,2.176,3.119c1.305,0.363,5.294,0.581,15.52,0.871c15.955,0.507,19.074,0.87,22.192,2.827
	c3.336,2.177,4.569,5.44,4.569,12.185c0,8.412-2.031,12.546-7.035,14.432c-2.901,1.088-8.993,1.45-23.425,1.45
	c-15.012,0-20.887-0.653-24.295-2.829c-3.336-2.103-4.424-4.932-4.424-11.603v-2.321H141.115z"/>
<path class="st1" d="M206.599,209.079v48.373h-15.448v-48.373H206.599z"/>
<path class="st1" d="M276.437,230.037v1.306c0,4.786-0.29,13.053-0.508,15.375c-0.58,5.657-3.698,8.993-9.5,10.153
	c-4.932,1.016-10.008,1.306-23.135,1.306c-16.608,0-21.756-0.653-25.818-3.409c-4.279-2.827-5.077-6.381-5.077-22.264
	c0-22.627,2.103-24.151,33.434-24.151c17.985,0,24.658,1.161,27.849,5.004c2.03,2.394,2.61,5.368,2.683,12.474h-14.723
	c-0.072-2.827-0.217-3.408-1.16-4.061c-1.45-1.016-4.859-1.306-15.883-1.306c-17.406,0-17.478,0.074-17.478,12.62
	c0,8.195,0.435,10.661,2.03,11.966c1.233,1.016,2.538,1.234,6.673,1.378l8.63,0.146c17.188,0,17.623-0.146,17.623-5.513v-1.378
	h-19.364v-9.646H276.437z"/>
<path class="st1" d="M308.125,209.079l25.31,36.043h1.524l-0.363-36.043h15.012v48.373h-25.601l-25.456-36.117h-1.596l0.363,36.117
	h-15.012v-48.373H308.125z"/>
<path class="st0" d="M392.38,209.078l12.983,36.189h2.683l10.952-36.189h17.769l11.024,36.189h2.755l13.055-36.189h15.593
	l-18.784,48.373h-22.7l-9.718-35.464l-9.573,35.464h-22.845l-18.203-48.373H392.38z"/>
<g>
	<polygon class="st0" points="535.172,209.078 481.651,209.078 481.639,221.206 535.172,221.206 	"/>
	<polygon class="st0" points="481.639,245.847 481.651,257.45 535.462,257.45 535.462,245.847 	"/>
	<rect x="481.639" y="227.498" class="st0" width="51.575" height="10.661"/>
</g>
<path class="st0" d="M591.302,238.74c2.901-0.436,4.279-0.943,5.657-2.031c2.61-1.959,3.336-4.714,3.336-11.893
	c0-8.413-1.088-11.604-4.786-13.852c-3.119-1.885-3.119-1.885-19.8-1.885h-35.608v12.11c0,0,0.012,0,0.019,0l0,0h35.445
	c6.673,0.074,6.889,0.074,7.905,0.508c1.523,0.653,2.103,2.031,2.103,5.294c0,3.045-0.435,4.496-1.596,5.221
	c-1.014,0.725-1.014,0.725-8.412,0.871H540.12l0,0c-0.006,0.001-0.013-0.001-0.019,0v24.368h14.722v-12.256h20.814
	c6.092,0,7.18,0.144,8.195,1.304c1.16,1.234,1.45,2.974,1.45,8.413v2.538h14.505v-4.497
	C600.078,241.785,598.772,239.61,591.302,238.74z"/>
<path class="st0" d="M620.09,209.078v17.55h8.049l19.147-17.841h22.555l-27.993,24.005l30.315,24.658h-22.338l-21.685-18.494h-8.049
	v18.494h-14.722v-48.373H620.09z"/>
<path class="st0" d="M686.3,241.423c0,2.901,0.289,3.844,1.45,4.569c1.378,0.87,2.973,1.016,13.344,1.016
	c15.81,0,15.81,0,15.81-4.279c0-2.901-1.088-3.626-5.802-3.7l-11.603-0.435l-7.833-0.363l-3.916-0.144
	c-11.967-0.363-15.303-3.409-15.303-14.07c0-9.209,2.61-13.344,9.283-14.794c2.828-0.581,9.501-0.871,21.104-0.871
	c14.069,0,19.147,0.653,22.555,2.974c2.901,1.957,4.062,5.004,4.062,10.733c0,0.29,0,1.306-0.074,2.248h-14.213
	c-0.146-2.683-0.363-3.336-1.452-3.989c-1.232-0.725-3.045-0.87-13.488-0.87c-12.474,0-13.49,0.289-13.49,3.843
	c0,1.813,0.653,2.756,2.176,3.119c1.306,0.363,5.294,0.581,15.519,0.871c15.956,0.507,19.075,0.87,22.193,2.827
	c3.336,2.177,4.568,5.44,4.568,12.185c0,8.412-2.03,12.546-7.034,14.432c-2.901,1.088-8.993,1.45-23.426,1.45
	c-15.012,0-20.886-0.653-24.295-2.829c-3.336-2.103-4.423-4.932-4.423-11.603v-2.321H686.3z"/>
</svg>