<!-- Generator: Adobe Illustrator 22.0.1, SVG Export Plug-In  -->
<svg version="1.1"
	 xmlns="http://www.w3.org/2000/svg" xmlns:xlink="http://www.w3.org/1999/xlink" xmlns:a="http://ns.adobe.com/AdobeSVGViewerExtensions/3.0/"
	 x="0px" y="0px" width="28.553px" height="28.549px" viewBox="0 0 28.553 28.549"
	 style="enable-background:new 0 0 28.553 28.549;" xml:space="preserve">
<style type="text/css">
	.st0{fill:#1D458F;}
	.st1{fill:#FFFFFF;}
</style>
<defs>
</defs>
<path class="st0" d="M14.292,0c7.692-0.027,14.289,6.191,14.261,14.325c-0.028,7.918-6.389,14.252-14.34,14.223
	C6.235,28.52-0.018,22.027,0,14.231C0.018,6.363,6.443-0.042,14.292,0z M17.937,11.57c-0.171-0.013-0.303-0.03-0.436-0.031
	c-0.572-0.003-1.145-0.002-1.717-0.002c-0.154,0-0.296,0-0.287-0.222c0.021-0.488,0.011-0.978,0.052-1.463
	c0.035-0.421,0.214-0.582,0.643-0.61c0.497-0.033,0.997-0.041,1.496-0.049c0.167-0.003,0.246-0.049,0.244-0.23
	c-0.006-0.76-0.004-1.519-0.001-2.279c0.001-0.149-0.039-0.235-0.209-0.231c-0.987,0.025-1.979-0.009-2.959,0.081
	c-1.316,0.12-2.219,0.968-2.418,2.269c-0.12,0.786-0.11,1.593-0.127,2.391c-0.006,0.281-0.095,0.363-0.361,0.349
	c-0.332-0.017-0.666,0-0.999-0.003c-0.183-0.001-0.262,0.081-0.261,0.265c0.004,0.749,0.003,1.498,0,2.248
	c-0.001,0.182,0.069,0.262,0.26,0.256c0.322-0.01,0.648,0.022,0.967-0.009c0.334-0.033,0.393,0.1,0.391,0.404
	c-0.012,2.341-0.001,4.683-0.012,7.024c-0.001,0.303,0.093,0.393,0.391,0.387c0.843-0.017,1.686-0.019,2.528,0.001
	c0.303,0.007,0.384-0.086,0.383-0.385c-0.012-2.341-0.001-4.683-0.013-7.024c-0.001-0.3,0.05-0.429,0.387-0.407
	c0.497,0.032,0.999,0.002,1.498,0.011c0.204,0.004,0.3-0.052,0.31-0.276c0.014-0.31,0.071-0.618,0.103-0.928
	C17.841,12.602,17.887,12.099,17.937,11.57z"/>
<path class="st1" d="M17.937,11.57c-0.05,0.529-0.096,1.033-0.147,1.535c-0.031,0.31-0.089,0.617-0.103,0.928
	c-0.01,0.224-0.106,0.28-0.31,0.276c-0.499-0.01-1,0.021-1.498-0.011c-0.338-0.022-0.389,0.107-0.387,0.407
	c0.012,2.341,0.001,4.683,0.013,7.024c0.002,0.3-0.08,0.392-0.383,0.385c-0.842-0.019-1.686-0.018-2.528-0.001
	c-0.298,0.006-0.392-0.084-0.391-0.387c0.011-2.341,0.001-4.683,0.012-7.024c0.002-0.304-0.057-0.437-0.391-0.404
	c-0.319,0.032-0.645-0.001-0.967,0.009c-0.191,0.006-0.261-0.075-0.26-0.256c0.003-0.749,0.003-1.498,0-2.248
	c-0.001-0.184,0.077-0.266,0.261-0.265c0.333,0.003,0.667-0.015,0.999,0.003c0.266,0.014,0.355-0.068,0.361-0.349
	c0.017-0.798,0.007-1.605,0.127-2.391c0.199-1.301,1.102-2.149,2.418-2.269c0.981-0.089,1.973-0.056,2.959-0.081
	c0.171-0.004,0.21,0.082,0.209,0.231c-0.003,0.76-0.005,1.519,0.001,2.279c0.001,0.182-0.077,0.228-0.244,0.23
	C17.189,9.2,16.69,9.209,16.192,9.242c-0.429,0.028-0.607,0.189-0.643,0.61c-0.041,0.486-0.032,0.976-0.052,1.463
	c-0.009,0.222,0.133,0.222,0.287,0.222c0.572,0,1.145-0.002,1.717,0.002C17.634,11.54,17.766,11.557,17.937,11.57z"/>
</svg>