<!-- Generator: Adobe Illustrator 22.0.1, SVG Export Plug-In  -->
<svg version="1.1"
	 xmlns="http://www.w3.org/2000/svg" xmlns:xlink="http://www.w3.org/1999/xlink" xmlns:a="http://ns.adobe.com/AdobeSVGViewerExtensions/3.0/"
	 x="0px" y="0px" width="389.737px" height="176.647px" viewBox="0 0 389.737 176.647"
	 style="enable-background:new 0 0 389.737 176.647;" xml:space="preserve">
<style type="text/css">
	.st0{fill:#1D458F;stroke:#FFFFFF;stroke-width:6;stroke-miterlimit:10;}
	.st1{fill:#FFFFFF;stroke:#FFFFFF;stroke-width:6;stroke-miterlimit:10;}
</style>
<defs>
</defs>
<path class="st0" d="M324.285,19.462c1.443,4.34,2.876,8.647,4.307,12.956c3.713,11.183,7.324,22.402,11.246,33.511
	c0.587,1.663,2.376,3.456,4.032,4.096c9.974,3.855,20.068,7.399,30.127,11.031c4.258,1.537,5.274,2.92,5.277,7.496
	c0.01,14.555,0.002,29.111,0.002,43.666c0,1.182,0,2.364,0,3.475c6.197,1.441,7.274,2.448,7.435,6.752
	c0.269,7.194-1.389,8.887-8.701,8.886c-7.77-0.001-15.54,0.021-23.31-0.009c-4.975-0.019-6.875-1.921-7.029-6.9
	c-0.603-19.488-14.915-34.312-34.302-35.529c-19.252-1.209-36.981,15.155-37.287,34.416c-0.01,0.657-0.009,1.313-0.01,1.97
	c-0.003,4.814-1.182,6.038-5.944,6.041c-20.574,0.012-41.149,0.008-61.723,0.01c-2.079,0-4.159,0.014-6.238-0.003
	c-4.449-0.038-5.657-1.255-5.623-5.632c0.139-17.674-11.29-32.107-28.519-36.013c-21.179-4.802-42.399,11.643-43.047,33.359
	c-0.244,8.185-0.356,8.292-8.674,8.29c-3.283-0.001-6.566,0.001-9.85-0.001c-5.195-0.003-6.416-1.192-6.416-6.29
	c-0.003-35.568,0-71.135-0.002-106.703c-0.001-9.74-0.022-19.48-0.018-29.22c0.002-4.762,1.304-6.113,5.931-6.113
	c72.996-0.005,145.992-0.005,218.987,0.001c4.35,0,5.706,1.347,5.76,5.612c0.013,0.985-0.001,1.97-0.002,2.955
	C330.685,18.083,330.649,18.13,324.285,19.462z M324.787,69.28c-0.156-0.992-0.186-1.753-0.4-2.458
	c-3.355-11.051-6.806-22.074-10.048-33.159c-0.683-2.336-1.752-3.093-4.126-3.078c-14.206,0.09-28.414,0.111-42.62-0.023
	c-2.636-0.025-3.34,0.753-3.309,3.32c0.127,10.708,0.129,21.42-0.004,32.128c-0.032,2.567,0.656,3.36,3.298,3.337
	c14.534-0.13,29.069-0.066,43.604-0.068C315.65,69.28,320.118,69.28,324.787,69.28z"/>
<path class="st0" d="M341.893,144.961c-0.116,15.93-13.075,28.792-28.9,28.684c-15.829-0.108-28.74-13.157-28.667-28.973
	c0.075-16.211,13.077-28.899,29.44-28.73C329.373,116.104,342.008,129.139,341.893,144.961z M313.166,154.738
	c5.508-0.005,10.086-4.517,10.09-9.943c0.004-5.448-4.526-10.025-9.993-10.098c-5.602-0.074-10.281,4.58-10.219,10.164
	C303.105,150.35,307.608,154.743,313.166,154.738z"/>
<path class="st0" d="M190.267,144.913c-0.095,15.886-13.027,28.753-28.878,28.734c-15.778-0.019-28.715-13.064-28.684-28.924
	c0.032-16.128,12.868-28.85,29.04-28.781C177.615,116.009,190.362,128.958,190.267,144.913z M161.512,154.735
	c5.553-0.023,10.06-4.459,10.106-9.946c0.047-5.511-4.767-10.208-10.345-10.094c-5.439,0.111-10.081,4.856-9.947,10.167
	C151.465,150.369,155.993,154.758,161.512,154.735z"/>
<path class="st0" d="M86.664,12.703c0,5.106,0,9.769,0,14.994c-27.835-2.397-55.629-4.791-83.424-7.185
	c-0.014-0.193-0.027-0.386-0.041-0.58C30.954,17.528,58.709,15.124,86.664,12.703z"/>
<path class="st0" d="M20.149,53.688c22.073-2.431,44.146-4.862,66.459-7.32c0,5.045,0,9.891,0,15.038
	c-22.267-2.447-44.36-4.875-66.453-7.303C20.153,53.964,20.151,53.826,20.149,53.688z"/>
<path class="st0" d="M86.682,80.088c0,5.261,0,9.918,0,15.001c-13.412-2.446-26.594-4.85-39.776-7.255
	c0.017-0.189,0.034-0.379,0.052-0.568C60.08,84.895,73.203,82.524,86.682,80.088z"/>
<path class="st1" d="M324.787,69.28c-4.669,0-9.137-0.001-13.605,0c-14.535,0.002-29.07-0.062-43.604,0.068
	c-2.642,0.024-3.33-0.769-3.298-3.337c0.132-10.708,0.131-21.42,0.004-32.128c-0.03-2.567,0.673-3.345,3.309-3.32
	c14.206,0.133,28.414,0.113,42.62,0.023c2.374-0.015,3.443,0.742,4.126,3.078c3.241,11.084,6.693,22.107,10.048,33.159
	C324.601,67.527,324.631,68.288,324.787,69.28z"/>
<path class="st1" d="M313.166,154.738c-5.558,0.005-10.061-4.388-10.122-9.876c-0.062-5.584,4.617-10.238,10.219-10.164
	c5.466,0.072,9.997,4.65,9.993,10.098C323.252,150.221,318.674,154.732,313.166,154.738z"/>
<path class="st1" d="M161.512,154.735c-5.519,0.023-10.047-4.365-10.186-9.873c-0.134-5.311,4.509-10.057,9.947-10.167
	c5.578-0.114,10.392,4.583,10.345,10.094C171.572,150.275,167.065,154.711,161.512,154.735z"/>
</svg>